<svg xmlns="http://www.w3.org/2000/svg" width="1280" height="720" viewBox="0 0 1280 720" role="img" aria-labelledby="title desc">
  <title id="title">MarketCraft AI 外部执行结果演示</title>
  <desc id="desc">审批通过后的库存预占、平台履约、外部 ID 和审计记录</desc>
  <defs><filter id="s" x="-20%" y="-20%" width="140%" height="140%"><feDropShadow dx="0" dy="9" stdDeviation="12" flood-color="#173c2e" flood-opacity=".08"/></filter><style>.ui{font-family:Inter,-apple-system,BlinkMacSystemFont,"Segoe UI","PingFang SC","Microsoft YaHei",sans-serif}.serif{font-family:Georgia,"Songti SC",serif}.ink{fill:#17211b}.muted{fill:#6d7771}.tiny{font-size:10px;letter-spacing:1.4px}.small{font-size:12px}.body{font-size:14px}.strong{font-weight:700}</style></defs>
  <rect width="1280" height="720" fill="#f3f5f1"/><circle cx="1170" cy="30" r="230" fill="#b8dec8" opacity=".22"/>
  <g class="ui">
    <rect width="212" height="720" fill="#153c2e"/><rect x="24" y="24" width="40" height="40" rx="11" fill="#d9f06f"/><text x="44" y="51" text-anchor="middle" font-size="19" font-weight="800" fill="#174532">M</text><text x="76" y="42" font-size="16" class="strong" fill="#fff">MarketCraft</text><text x="76" y="58" class="tiny" fill="#fff" opacity=".45">AI OPERATIONS</text>
    <text x="31" y="130" class="tiny" fill="#fff" opacity=".35">01</text><text x="63" y="130" class="body" fill="#fff" opacity=".65">运营总览</text><text x="31" y="179" class="tiny" fill="#fff" opacity=".35">02</text><text x="63" y="179" class="body" fill="#fff" opacity=".65">订单履约</text><rect x="16" y="203" width="180" height="42" rx="10" fill="#fff" opacity=".1"/><text x="31" y="229" class="tiny" fill="#fff" opacity=".4">03</text><text x="63" y="229" class="body" fill="#fff">执行结果</text>
    <rect x="16" y="594" width="180" height="102" rx="13" fill="#fff" opacity=".07" stroke="#fff" stroke-opacity=".12"/><text x="31" y="621" class="tiny" fill="#fff" opacity=".45">EXECUTION MODE</text><text x="31" y="648" class="small" fill="#fff">幂等键已生效</text><text x="31" y="670" class="small" fill="#fff" opacity=".62">重复执行返回原结果</text>

    <g transform="translate(252 31)">
      <text y="10" class="tiny muted">EXECUTION RESULT / COMPLETED</text><text y="53" class="serif ink" font-size="36">外部系统执行结果</text><text y="78" class="body muted">每个步骤独立记录状态、Mock 外部 ID 和审计事件。</text><rect x="860" y="15" width="127" height="40" rx="20" fill="#e1f3e8"/><circle cx="884" cy="35" r="4" fill="#3b9562"/><text x="899" y="40" class="small strong" fill="#266343">执行完成</text>

      <g transform="translate(0 112)" filter="url(#s)"><rect width="988" height="118" rx="16" fill="#fff" stroke="#dfe5df"/><text x="22" y="30" class="tiny muted">WORKFLOW PROGRESS</text><line x1="95" y1="74" x2="890" y2="74" stroke="#b8ccbf" stroke-width="3"/><g fill="#235c45"><circle cx="95" cy="74" r="13"/><circle cx="360" cy="74" r="13"/><circle cx="625" cy="74" r="13"/><circle cx="890" cy="74" r="13"/></g><g fill="#fff" font-size="11" font-weight="800" text-anchor="middle"><text x="95" y="78">✓</text><text x="360" y="78">✓</text><text x="625" y="78">✓</text><text x="890" y="78">✓</text></g><text x="95" y="105" text-anchor="middle" class="small muted">审核通过</text><text x="360" y="105" text-anchor="middle" class="small muted">ERP 库存预占</text><text x="625" y="105" text-anchor="middle" class="small muted">Amazon 履约</text><text x="890" y="105" text-anchor="middle" class="small muted">状态持久化</text></g>

      <g transform="translate(0 250)" filter="url(#s)"><rect width="628" height="248" rx="16" fill="#fff" stroke="#dfe5df"/><text x="20" y="29" class="tiny muted">STEP RESULTS</text><text x="20" y="57" font-size="17" class="ink strong">外部系统步骤</text>
        <rect x="20" y="77" width="588" height="67" rx="11" fill="#fafbf9" stroke="#e5eae5"/><rect x="36" y="94" width="35" height="35" rx="10" fill="#e1f3e8"/><text x="54" y="118" text-anchor="middle" font-size="16" fill="#266343">✓</text><text x="86" y="102" class="small strong ink">ERP · reserve_inventory:OPS-CUP-001</text><text x="86" y="124" class="tiny muted">mock-erp-reservation-32fa1a887e587c14a5</text><rect x="527" y="96" width="64" height="22" rx="11" fill="#e1f3e8"/><text x="559" y="111" text-anchor="middle" font-size="9" fill="#266343">成功</text>
        <rect x="20" y="157" width="588" height="67" rx="11" fill="#fafbf9" stroke="#e5eae5"/><rect x="36" y="174" width="35" height="35" rx="10" fill="#e1f3e8"/><text x="54" y="198" text-anchor="middle" font-size="16" fill="#266343">✓</text><text x="86" y="182" class="small strong ink">commerce_platform · create_fulfillment</text><text x="86" y="204" class="tiny muted">mock-amazon-b918bdd293dbe982a8</text><rect x="527" y="176" width="64" height="22" rx="11" fill="#e1f3e8"/><text x="559" y="191" text-anchor="middle" font-size="9" fill="#266343">成功</text>
      </g>

      <g transform="translate(648 250)" filter="url(#s)"><rect width="340" height="248" rx="16" fill="#fff" stroke="#dfe5df"/><text x="20" y="29" class="tiny muted">INVENTORY CHANGE</text><text x="20" y="57" font-size="17" class="ink strong">库存变化</text><text x="20" y="91" class="small muted">SKU</text><text x="316" y="91" text-anchor="end" class="small strong ink">OPS-CUP-001</text><text x="20" y="126" class="small muted">执行前可用</text><text x="316" y="126" text-anchor="end" class="serif" font-size="24" fill="#17211b">5</text><text x="20" y="163" class="small muted">本次预占</text><text x="316" y="163" text-anchor="end" class="serif" font-size="24" fill="#b6473d">−2</text><line x1="20" y1="180" x2="320" y2="180" stroke="#e2e7e2"/><text x="20" y="215" class="body strong ink">执行后可用</text><text x="316" y="218" text-anchor="end" class="serif" font-size="31" fill="#235c45">3</text></g>

      <g transform="translate(0 518)" filter="url(#s)"><rect width="988" height="110" rx="16" fill="#fff" stroke="#dfe5df"/><text x="20" y="29" class="tiny muted">AUDIT LOG</text><text x="20" y="55" font-size="17" class="ink strong">审计记录</text><text x="20" y="84" class="tiny muted">15:42:11</text><text x="90" y="84" class="small strong ink">reviewer-b</text><text x="185" y="84" class="small muted">operation_approved</text><text x="390" y="84" class="tiny muted">15:42:13</text><text x="460" y="84" class="small strong ink">executor-c</text><text x="545" y="84" class="small muted">operation_executed</text><rect x="820" y="67" width="147" height="25" rx="12" fill="#edf2ee"/><text x="894" y="84" text-anchor="middle" class="tiny" fill="#567064">IDEMPOTENT REPLAY SAFE</text></g>
    </g>
  </g>
</svg>
